<svg width="228" height="108" viewBox="0 0 228 108" fill="none" xmlns="http://www.w3.org/2000/svg">
<path d="M10.626 9.67697H44.436C53.912 9.67697 61.134 11.977 66.102 16.577C71.162 21.177 73.692 27.433 73.692 35.345C73.692 40.865 72.312 45.281 69.552 48.593C66.884 51.813 63.02 54.159 57.96 55.631V56.459C63.94 57.931 68.54 60.507 71.76 64.187C75.072 67.867 76.728 72.973 76.728 79.505C76.728 87.601 74.152 94.041 69 98.825C63.94 103.609 56.81 106.001 47.61 106.001H10.626V9.67697ZM41.262 91.511C46.23 91.511 49.864 90.683 52.164 89.027C54.464 87.371 55.614 84.335 55.614 79.919V75.917C55.614 71.501 54.464 68.465 52.164 66.809C49.864 65.153 46.23 64.325 41.262 64.325H30.774V91.511H41.262ZM38.64 50.525C43.516 50.525 47.058 49.743 49.266 48.179C51.474 46.523 52.578 43.579 52.578 39.347V35.207C52.578 30.975 51.474 28.077 49.266 26.513C47.058 24.949 43.516 24.167 38.64 24.167H30.774V50.525H38.64Z" fill="white"/>
<path d="M172.6 42.2239H171.082V106.256H153.418V9.93186H178.258L200.2 73.9639H201.718V9.93186H219.382V106.256H194.542L172.6 42.2239Z" fill="white"/>
<path d="M102.566 107.657C98.242 107.657 94.424 106.921 91.112 105.449C87.8 103.885 84.994 101.861 82.694 99.377C80.486 96.801 78.784 93.857 77.588 90.545C76.484 87.141 75.932 83.553 75.932 79.781C75.932 73.985 77.312 68.925 80.072 64.601C82.832 60.277 86.88 56.551 92.216 53.423C89.272 49.283 87.018 45.603 85.454 42.383C83.982 39.163 83.246 35.805 83.246 32.309C83.246 28.905 83.89 25.731 85.178 22.787C86.558 19.751 88.444 17.175 90.836 15.059C93.32 12.851 96.172 11.149 99.392 9.95297C102.704 8.66497 106.292 8.02097 110.156 8.02097C113.56 8.02097 116.734 8.52697 119.678 9.53897C122.622 10.459 125.198 11.701 127.406 13.265C129.706 14.829 131.592 16.669 133.064 18.785C134.628 20.809 135.778 22.925 136.514 25.133L122.438 32.723C121.426 29.779 119.862 27.479 117.746 25.823C115.63 24.075 113.192 23.201 110.432 23.201C107.672 23.201 105.418 24.029 103.67 25.685C102.014 27.341 101.186 29.503 101.186 32.171V32.861C101.186 34.149 101.37 35.391 101.738 36.587C102.106 37.691 102.75 38.979 103.67 40.451C104.59 41.831 105.74 43.487 107.12 45.419C108.592 47.259 110.432 49.559 112.64 52.319L120.506 62.255L127.13 72.467H127.958C128.234 70.903 128.464 69.201 128.648 67.361C128.832 65.429 128.97 63.497 129.062 61.565C129.246 59.541 129.338 57.609 129.338 55.769C129.43 53.837 129.476 52.089 129.476 50.525H154.04V65.705H144.38C143.92 68.649 143.23 71.685 142.31 74.813C141.39 77.849 140.194 80.977 138.722 84.197L156.662 106.001H134.858L123.818 92.615H122.852C122.208 97.307 120.092 100.987 116.504 103.655C112.916 106.323 108.27 107.657 102.566 107.657ZM107.672 92.063C109.788 92.063 111.766 91.695 113.606 90.959C115.446 90.131 117.01 88.659 118.298 86.543L100.496 63.911C98.104 66.211 96.54 68.557 95.804 70.949C95.068 73.249 94.7 75.733 94.7 78.401V78.677C94.7 83.093 95.85 86.451 98.15 88.751C100.542 90.959 103.716 92.063 107.672 92.063Z" fill="white"/>
</svg>
