<svg width="125" height="51" viewBox="0 0 125 51" fill="none" xmlns="http://www.w3.org/2000/svg">
<path d="M2.064 16.248H9.48C10.872 16.248 11.96 16.64 12.744 17.424C13.544 18.208 13.944 19.256 13.944 20.568C13.944 21.192 13.856 21.728 13.68 22.176C13.504 22.608 13.28 22.968 13.008 23.256C12.736 23.528 12.424 23.736 12.072 23.88C11.72 24.008 11.376 24.088 11.04 24.12V24.264C11.376 24.28 11.744 24.36 12.144 24.504C12.56 24.648 12.944 24.88 13.296 25.2C13.648 25.504 13.944 25.904 14.184 26.4C14.424 26.88 14.544 27.472 14.544 28.176C14.544 28.848 14.432 29.48 14.208 30.072C14 30.664 13.704 31.176 13.32 31.608C12.936 32.04 12.48 32.384 11.952 32.64C11.424 32.88 10.848 33 10.224 33H2.064V16.248ZM4.776 30.672H9.432C10.136 30.672 10.688 30.488 11.088 30.12C11.488 29.752 11.688 29.224 11.688 28.536V27.72C11.688 27.032 11.488 26.504 11.088 26.136C10.688 25.768 10.136 25.584 9.432 25.584H4.776V30.672ZM4.776 23.328H8.976C9.648 23.328 10.168 23.16 10.536 22.824C10.904 22.472 11.088 21.976 11.088 21.336V20.568C11.088 19.928 10.904 19.44 10.536 19.104C10.168 18.752 9.648 18.576 8.976 18.576H4.776V23.328ZM17.8843 33V16.248H28.6123V18.648H20.5963V23.304H27.8683V25.704H20.5963V30.6H28.6123V33H17.8843ZM34.8229 33H32.1109V16.248H39.3349C40.8389 16.248 42.0229 16.704 42.8869 17.616C43.7509 18.512 44.1829 19.736 44.1829 21.288C44.1829 22.488 43.9029 23.488 43.3429 24.288C42.7989 25.072 41.9909 25.624 40.9189 25.944L44.5429 33H41.5189L38.1589 26.232H34.8229V33ZM39.1429 23.952C39.8309 23.952 40.3669 23.776 40.7509 23.424C41.1349 23.056 41.3269 22.536 41.3269 21.864V20.712C41.3269 20.04 41.1349 19.528 40.7509 19.176C40.3669 18.808 39.8309 18.624 39.1429 18.624H34.8229V23.952H39.1429ZM53.4675 18.648V33H50.7555V18.648H45.7635V16.248H58.4595V18.648H53.4675Z" fill="white"/>
<path d="M73.2615 23.7395L71.4135 20.1875H71.3415V33.0035H68.7495V16.2515H71.7735L77.2455 25.5155L79.0935 29.0675H79.1655V16.2515H81.7575V33.0035H78.7335L73.2615 23.7395ZM96.3464 33.0035L94.8344 28.4675H88.5704L87.1064 33.0035H84.3464L90.0584 16.2515H93.4664L99.1784 33.0035H96.3464ZM91.7624 18.7475H91.6424L89.2184 26.1395H94.1624L91.7624 18.7475ZM106.789 33.2915C105.381 33.2915 104.181 33.0355 103.189 32.5235C102.213 32.0115 101.373 31.3235 100.669 30.4595L102.541 28.7075C103.133 29.4275 103.781 29.9715 104.485 30.3395C105.205 30.7075 106.021 30.8915 106.933 30.8915C108.005 30.8915 108.813 30.6515 109.357 30.1715C109.901 29.6915 110.173 29.0435 110.173 28.2275C110.173 27.5715 109.981 27.0515 109.597 26.6675C109.213 26.2835 108.533 25.9955 107.557 25.8035L106.069 25.5395C104.437 25.2355 103.213 24.6995 102.397 23.9315C101.581 23.1635 101.173 22.1075 101.173 20.7635C101.173 20.0275 101.309 19.3635 101.581 18.7715C101.869 18.1635 102.261 17.6595 102.757 17.2595C103.269 16.8435 103.885 16.5235 104.605 16.2995C105.325 16.0755 106.133 15.9635 107.029 15.9635C108.293 15.9635 109.389 16.1875 110.317 16.6355C111.245 17.0675 112.037 17.6995 112.693 18.5315L110.797 20.2115C110.365 19.6515 109.837 19.2035 109.213 18.8675C108.589 18.5315 107.813 18.3635 106.885 18.3635C105.925 18.3635 105.181 18.5555 104.653 18.9395C104.125 19.3235 103.861 19.8835 103.861 20.6195C103.861 21.3235 104.077 21.8515 104.509 22.2035C104.941 22.5395 105.613 22.7955 106.525 22.9715L108.013 23.2835C109.693 23.6035 110.917 24.1475 111.685 24.9155C112.469 25.6835 112.861 26.7395 112.861 28.0835C112.861 28.8675 112.725 29.5795 112.453 30.2195C112.181 30.8595 111.781 31.4115 111.253 31.8755C110.741 32.3235 110.109 32.6755 109.357 32.9315C108.605 33.1715 107.749 33.2915 106.789 33.2915ZM115.397 33.0035V30.7955H117.677V18.4595H115.397V16.2515H122.693V18.4595H120.389V30.7955H122.693V33.0035H115.397Z" fill="white"/>
<mask id="path-3-outside-1_419_933" maskUnits="userSpaceOnUse" x="52.6855" y="13.6653" width="19" height="21" fill="black">
<rect fill="white" x="52.6855" y="13.6653" width="19" height="21"/>
<path d="M64.4215 30.6973C64.2455 30.9053 64.0215 31.1453 63.7495 31.4173C63.4775 31.6733 63.1415 31.9133 62.7415 32.1373C62.3575 32.3613 61.8935 32.5533 61.3495 32.7133C60.8215 32.8733 60.2215 32.9533 59.5495 32.9533C58.7175 32.9533 57.9815 32.8333 57.3415 32.5933C56.7015 32.3533 56.1655 32.0253 55.7335 31.6093C55.3015 31.1773 54.9735 30.6813 54.7495 30.1213C54.5255 29.5613 54.4135 28.9613 54.4135 28.3213C54.4135 27.6973 54.5095 27.1453 54.7015 26.6653C54.8935 26.1853 55.1495 25.7613 55.4695 25.3933C55.8055 25.0093 56.1735 24.6733 56.5735 24.3853C56.9895 24.0973 57.4135 23.8333 57.8455 23.5933C57.2695 22.9853 56.8055 22.3693 56.4535 21.7453C56.1175 21.1053 55.9495 20.4093 55.9495 19.6573C55.9495 19.0973 56.0535 18.5693 56.2615 18.0733C56.4695 17.5773 56.7575 17.1533 57.1255 16.8013C57.5095 16.4333 57.9655 16.1453 58.4935 15.9373C59.0375 15.7293 59.6375 15.6253 60.2935 15.6253C60.8855 15.6253 61.4295 15.7133 61.9255 15.8893C62.4215 16.0653 62.8455 16.3133 63.1975 16.6333C63.5495 16.9373 63.8215 17.3133 64.0135 17.7613C64.2215 18.2093 64.3255 18.6973 64.3255 19.2253C64.3255 19.7853 64.2215 20.2893 64.0135 20.7373C63.8215 21.1693 63.5495 21.5693 63.1975 21.9373C62.8455 22.3053 62.4375 22.6493 61.9735 22.9693C61.5095 23.2733 61.0135 23.5693 60.4855 23.8573L64.2535 27.9133C64.4935 27.3053 64.6775 26.6573 64.8055 25.9693C64.9335 25.2813 65.0135 24.5773 65.0455 23.8573H68.3095V25.4893H66.6055C66.4935 26.1933 66.3415 26.8573 66.1495 27.4813C65.9575 28.0893 65.7255 28.6573 65.4535 29.1853L68.7175 32.6653H66.2215L64.4215 30.6973ZM60.1975 17.2333C59.5095 17.2333 58.9415 17.4493 58.4935 17.8813C58.0615 18.3133 57.8455 18.8493 57.8455 19.4893V19.7773C57.8455 20.2573 57.9895 20.7453 58.2775 21.2413C58.5815 21.7213 58.9735 22.2333 59.4535 22.7773C59.8375 22.5693 60.2055 22.3533 60.5575 22.1293C60.9255 21.8893 61.2455 21.6333 61.5175 21.3613C61.8055 21.0893 62.0375 20.8093 62.2135 20.5213C62.3895 20.2173 62.4775 19.8973 62.4775 19.5613V19.2733C62.4775 18.6173 62.2455 18.1133 61.7815 17.7613C61.3335 17.4093 60.8055 17.2333 60.1975 17.2333ZM59.7175 31.2733C60.5335 31.2733 61.2375 31.1213 61.8295 30.8173C62.4215 30.4973 62.9255 30.0733 63.3415 29.5453L58.8535 24.6973C58.5335 24.8733 58.2215 25.0573 57.9175 25.2493C57.6295 25.4413 57.3735 25.6733 57.1495 25.9453C56.9255 26.2013 56.7415 26.5053 56.5975 26.8573C56.4695 27.1933 56.4055 27.5933 56.4055 28.0573V28.4173C56.4055 29.2973 56.7015 29.9933 57.2935 30.5053C57.9015 31.0173 58.7095 31.2733 59.7175 31.2733Z"/>
</mask>
<path d="M64.4215 30.6973C64.2455 30.9053 64.0215 31.1453 63.7495 31.4173C63.4775 31.6733 63.1415 31.9133 62.7415 32.1373C62.3575 32.3613 61.8935 32.5533 61.3495 32.7133C60.8215 32.8733 60.2215 32.9533 59.5495 32.9533C58.7175 32.9533 57.9815 32.8333 57.3415 32.5933C56.7015 32.3533 56.1655 32.0253 55.7335 31.6093C55.3015 31.1773 54.9735 30.6813 54.7495 30.1213C54.5255 29.5613 54.4135 28.9613 54.4135 28.3213C54.4135 27.6973 54.5095 27.1453 54.7015 26.6653C54.8935 26.1853 55.1495 25.7613 55.4695 25.3933C55.8055 25.0093 56.1735 24.6733 56.5735 24.3853C56.9895 24.0973 57.4135 23.8333 57.8455 23.5933C57.2695 22.9853 56.8055 22.3693 56.4535 21.7453C56.1175 21.1053 55.9495 20.4093 55.9495 19.6573C55.9495 19.0973 56.0535 18.5693 56.2615 18.0733C56.4695 17.5773 56.7575 17.1533 57.1255 16.8013C57.5095 16.4333 57.9655 16.1453 58.4935 15.9373C59.0375 15.7293 59.6375 15.6253 60.2935 15.6253C60.8855 15.6253 61.4295 15.7133 61.9255 15.8893C62.4215 16.0653 62.8455 16.3133 63.1975 16.6333C63.5495 16.9373 63.8215 17.3133 64.0135 17.7613C64.2215 18.2093 64.3255 18.6973 64.3255 19.2253C64.3255 19.7853 64.2215 20.2893 64.0135 20.7373C63.8215 21.1693 63.5495 21.5693 63.1975 21.9373C62.8455 22.3053 62.4375 22.6493 61.9735 22.9693C61.5095 23.2733 61.0135 23.5693 60.4855 23.8573L64.2535 27.9133C64.4935 27.3053 64.6775 26.6573 64.8055 25.9693C64.9335 25.2813 65.0135 24.5773 65.0455 23.8573H68.3095V25.4893H66.6055C66.4935 26.1933 66.3415 26.8573 66.1495 27.4813C65.9575 28.0893 65.7255 28.6573 65.4535 29.1853L68.7175 32.6653H66.2215L64.4215 30.6973ZM60.1975 17.2333C59.5095 17.2333 58.9415 17.4493 58.4935 17.8813C58.0615 18.3133 57.8455 18.8493 57.8455 19.4893V19.7773C57.8455 20.2573 57.9895 20.7453 58.2775 21.2413C58.5815 21.7213 58.9735 22.2333 59.4535 22.7773C59.8375 22.5693 60.2055 22.3533 60.5575 22.1293C60.9255 21.8893 61.2455 21.6333 61.5175 21.3613C61.8055 21.0893 62.0375 20.8093 62.2135 20.5213C62.3895 20.2173 62.4775 19.8973 62.4775 19.5613V19.2733C62.4775 18.6173 62.2455 18.1133 61.7815 17.7613C61.3335 17.4093 60.8055 17.2333 60.1975 17.2333ZM59.7175 31.2733C60.5335 31.2733 61.2375 31.1213 61.8295 30.8173C62.4215 30.4973 62.9255 30.0733 63.3415 29.5453L58.8535 24.6973C58.5335 24.8733 58.2215 25.0573 57.9175 25.2493C57.6295 25.4413 57.3735 25.6733 57.1495 25.9453C56.9255 26.2013 56.7415 26.5053 56.5975 26.8573C56.4695 27.1933 56.4055 27.5933 56.4055 28.0573V28.4173C56.4055 29.2973 56.7015 29.9933 57.2935 30.5053C57.9015 31.0173 58.7095 31.2733 59.7175 31.2733Z" fill="#0D0F0F"/>
<path d="M64.4215 30.6973L65.1594 30.0224L64.3923 29.1837L63.6582 30.0514L64.4215 30.6973ZM63.7495 31.4173L64.4349 32.1455L64.4459 32.1352L64.4567 32.1245L63.7495 31.4173ZM62.7415 32.1373L62.2529 31.2648L62.2453 31.2691L62.2377 31.2736L62.7415 32.1373ZM61.3495 32.7133L61.0674 31.7539L61.0595 31.7563L61.3495 32.7133ZM57.3415 32.5933L56.9904 33.5297L56.9904 33.5297L57.3415 32.5933ZM55.7335 31.6093L55.0264 32.3165L55.0331 32.3231L55.0399 32.3297L55.7335 31.6093ZM54.7495 30.1213L55.678 29.75L55.678 29.75L54.7495 30.1213ZM54.7015 26.6653L55.63 27.0367L55.63 27.0367L54.7015 26.6653ZM55.4695 25.3933L54.717 24.7348L54.7149 24.7372L55.4695 25.3933ZM56.5735 24.3853L56.0043 23.5632L55.9967 23.5684L55.9892 23.5738L56.5735 24.3853ZM57.8455 23.5933L58.3312 24.4675L59.4581 23.8414L58.5715 22.9056L57.8455 23.5933ZM56.4535 21.7453L55.5681 22.2102L55.5752 22.2235L55.5826 22.2367L56.4535 21.7453ZM57.1255 16.8013L57.8168 17.524L57.8175 17.5233L57.1255 16.8013ZM58.4935 15.9373L58.1364 15.0032L58.127 15.0069L58.4935 15.9373ZM61.9255 15.8893L62.26 14.9469L62.26 14.9469L61.9255 15.8893ZM63.1975 16.6333L62.5249 17.3733L62.5343 17.3818L62.5439 17.3902L63.1975 16.6333ZM64.0135 17.7613L63.0944 18.1553L63.1003 18.1689L63.1065 18.1825L64.0135 17.7613ZM64.0135 20.7373L63.1065 20.3162L63.1031 20.3237L63.0997 20.3312L64.0135 20.7373ZM63.1975 21.9373L63.9202 22.6286L63.9202 22.6286L63.1975 21.9373ZM61.9735 22.9693L62.5216 23.8058L62.5315 23.7993L62.5413 23.7926L61.9735 22.9693ZM60.4855 23.8573L60.0067 22.9794L58.8773 23.5955L59.7529 24.538L60.4855 23.8573ZM64.2535 27.9133L63.5209 28.594L64.601 29.7566L65.1837 28.2805L64.2535 27.9133ZM64.8055 25.9693L63.8224 25.7864L63.8224 25.7864L64.8055 25.9693ZM65.0455 23.8573V22.8573H64.089L64.0465 23.8129L65.0455 23.8573ZM68.3095 23.8573H69.3095V22.8573H68.3095V23.8573ZM68.3095 25.4893V26.4893H69.3095V25.4893H68.3095ZM66.6055 25.4893V24.4893H65.7521L65.618 25.3322L66.6055 25.4893ZM66.1495 27.4813L67.1032 27.7825L67.1053 27.7754L66.1495 27.4813ZM65.4535 29.1853L64.5646 28.7274L64.2414 29.3547L64.7242 29.8695L65.4535 29.1853ZM68.7175 32.6653V33.6653H71.0265L69.4469 31.9812L68.7175 32.6653ZM66.2215 32.6653L65.4836 33.3403L65.781 33.6653H66.2215V32.6653ZM58.4935 17.8813L57.7994 17.1615L57.7929 17.1678L57.7864 17.1742L58.4935 17.8813ZM58.2775 21.2413L57.4128 21.7435L57.4224 21.7601L57.4327 21.7764L58.2775 21.2413ZM59.4535 22.7773L58.7037 23.439L59.2302 24.0356L59.9298 23.6566L59.4535 22.7773ZM60.5575 22.1293L61.0945 22.9731L61.1038 22.967L60.5575 22.1293ZM61.5175 21.3613L60.8309 20.6343L60.8205 20.6441L60.8104 20.6542L61.5175 21.3613ZM62.2135 20.5213L63.0668 21.0428L63.073 21.0327L63.079 21.0224L62.2135 20.5213ZM61.7815 17.7613L61.1637 18.5477L61.1704 18.5529L61.1772 18.558L61.7815 17.7613ZM61.8295 30.8173L62.2864 31.7069L62.2958 31.7021L62.3051 31.6971L61.8295 30.8173ZM63.3415 29.5453L64.127 30.1642L64.6558 29.493L64.0754 28.866L63.3415 29.5453ZM58.8535 24.6973L59.5874 24.018L59.0564 23.4445L58.3716 23.8211L58.8535 24.6973ZM57.9175 25.2493L57.3836 24.4039L57.3731 24.4104L57.3628 24.4173L57.9175 25.2493ZM57.1495 25.9453L57.9021 26.6038L57.912 26.5926L57.9215 26.5811L57.1495 25.9453ZM56.5975 26.8573L55.672 26.4787L55.6674 26.49L55.6631 26.5013L56.5975 26.8573ZM57.2935 30.5053L56.6393 31.2618L56.6494 31.2703L57.2935 30.5053ZM64.4215 30.6973L63.6582 30.0514C63.5057 30.2316 63.3021 30.4506 63.0424 30.7102L63.7495 31.4173L64.4567 32.1245C64.741 31.8401 64.9854 31.5791 65.1849 31.3433L64.4215 30.6973ZM63.7495 31.4173L63.0642 30.6891C62.8633 30.8782 62.5972 31.0721 62.2529 31.2648L62.7415 32.1373L63.2302 33.0099C63.6859 32.7546 64.0918 32.4685 64.4349 32.1455L63.7495 31.4173ZM62.7415 32.1373L62.2377 31.2736C61.9395 31.4475 61.554 31.6109 61.0674 31.754L61.3495 32.7133L61.6317 33.6727C62.2331 33.4958 62.7756 33.2752 63.2454 33.0011L62.7415 32.1373ZM61.3495 32.7133L61.0595 31.7563C60.6434 31.8824 60.1439 31.9533 59.5495 31.9533V32.9533V33.9533C60.2992 33.9533 60.9997 33.8643 61.6396 33.6704L61.3495 32.7133ZM59.5495 32.9533V31.9533C58.8122 31.9533 58.199 31.8469 57.6927 31.657L57.3415 32.5933L56.9904 33.5297C57.7641 33.8198 58.6229 33.9533 59.5495 33.9533V32.9533ZM57.3415 32.5933L57.6927 31.657C57.1626 31.4582 56.7481 31.1981 56.4272 30.889L55.7335 31.6093L55.0399 32.3297C55.583 32.8526 56.2405 33.2484 56.9904 33.5297L57.3415 32.5933ZM55.7335 31.6093L56.4407 30.9022C56.1031 30.5647 55.8511 30.1826 55.678 29.75L54.7495 30.1213L53.8211 30.4927C54.096 31.1801 54.5 31.79 55.0264 32.3165L55.7335 31.6093ZM54.7495 30.1213L55.678 29.75C55.5041 29.3152 55.4135 28.842 55.4135 28.3213H54.4135H53.4135C53.4135 29.0807 53.547 29.8075 53.8211 30.4927L54.7495 30.1213ZM54.4135 28.3213H55.4135C55.4135 27.7989 55.494 27.3769 55.63 27.0367L54.7015 26.6653L53.7731 26.294C53.5251 26.9138 53.4135 27.5958 53.4135 28.3213H54.4135ZM54.7015 26.6653L55.63 27.0367C55.7829 26.6544 55.982 26.328 56.2242 26.0495L55.4695 25.3933L54.7149 24.7372C54.3171 25.1947 54.0042 25.7162 53.7731 26.294L54.7015 26.6653ZM55.4695 25.3933L56.2221 26.0518C56.5098 25.7231 56.8217 25.4389 57.1579 25.1969L56.5735 24.3853L55.9892 23.5738C55.5254 23.9078 55.1013 24.2956 54.717 24.7348L55.4695 25.3933ZM56.5735 24.3853L57.1428 25.2075C57.5324 24.9378 57.9286 24.6912 58.3312 24.4675L57.8455 23.5933L57.3599 22.7192C56.8985 22.9755 56.4467 23.2569 56.0043 23.5632L56.5735 24.3853ZM57.8455 23.5933L58.5715 22.9056C58.0425 22.3472 57.6303 21.7961 57.3245 21.254L56.4535 21.7453L55.5826 22.2367C55.9808 22.9426 56.4966 23.6235 57.1196 24.2811L57.8455 23.5933ZM56.4535 21.7453L57.3389 21.2805C57.0813 20.7898 56.9495 20.2542 56.9495 19.6573H55.9495H54.9495C54.9495 20.5645 55.1538 21.4209 55.5681 22.2102L56.4535 21.7453ZM55.9495 19.6573H56.9495C56.9495 19.2246 57.0292 18.8286 57.1837 18.4601L56.2615 18.0733L55.3394 17.6866C55.0779 18.3101 54.9495 18.9701 54.9495 19.6573H55.9495ZM56.2615 18.0733L57.1837 18.4601C57.3417 18.0835 57.5535 17.7758 57.8168 17.524L57.1255 16.8013L56.4343 16.0787C55.9616 16.5309 55.5974 17.0712 55.3394 17.6866L56.2615 18.0733ZM57.1255 16.8013L57.8175 17.5233C58.1014 17.2512 58.4449 17.0313 58.8601 16.8678L58.4935 15.9373L58.127 15.0069C57.4862 15.2594 56.9177 15.6155 56.4336 16.0794L57.1255 16.8013ZM58.4935 15.9373L58.8507 16.8714C59.2672 16.7121 59.7443 16.6253 60.2935 16.6253V15.6253V14.6253C59.5308 14.6253 58.8079 14.7465 58.1364 15.0033L58.4935 15.9373ZM60.2935 15.6253V16.6253C60.7857 16.6253 61.215 16.6983 61.5911 16.8318L61.9255 15.8893L62.26 14.9469C61.6441 14.7284 60.9854 14.6253 60.2935 14.6253V15.6253ZM61.9255 15.8893L61.5911 16.8318C61.9754 16.9681 62.281 17.1516 62.5249 17.3733L63.1975 16.6333L63.8702 15.8934C63.4101 15.4751 62.8677 15.1626 62.26 14.9469L61.9255 15.8893ZM63.1975 16.6333L62.5439 17.3902C62.7755 17.5901 62.9593 17.8399 63.0944 18.1553L64.0135 17.7613L64.9327 17.3674C64.6838 16.7867 64.3236 16.2845 63.8512 15.8765L63.1975 16.6333ZM64.0135 17.7613L63.1065 18.1825C63.2491 18.4896 63.3255 18.8326 63.3255 19.2253H64.3255H65.3255C65.3255 18.5621 65.194 17.9291 64.9206 17.3402L64.0135 17.7613ZM64.3255 19.2253H63.3255C63.3255 19.6594 63.2456 20.0168 63.1065 20.3162L64.0135 20.7373L64.9206 21.1585C65.1975 20.5619 65.3255 19.9113 65.3255 19.2253H64.3255ZM64.0135 20.7373L63.0997 20.3312C62.958 20.65 62.7534 20.955 62.4749 21.2461L63.1975 21.9373L63.9202 22.6286C64.3457 22.1837 64.685 21.6887 64.9274 21.1435L64.0135 20.7373ZM63.1975 21.9373L62.4749 21.2461C62.1746 21.5601 61.8197 21.8607 61.4058 22.1461L61.9735 22.9693L62.5413 23.7926C63.0554 23.438 63.5165 23.0506 63.9202 22.6286L63.1975 21.9373ZM61.9735 22.9693L61.4255 22.1329C60.9858 22.421 60.513 22.7033 60.0067 22.9794L60.4855 23.8573L60.9644 24.7352C61.5141 24.4354 62.0333 24.1257 62.5216 23.8058L61.9735 22.9693ZM60.4855 23.8573L59.7529 24.538L63.5209 28.594L64.2535 27.9133L64.9862 27.2327L61.2182 23.1767L60.4855 23.8573ZM64.2535 27.9133L65.1837 28.2805C65.4488 27.6089 65.6498 26.8988 65.7887 26.1523L64.8055 25.9693L63.8224 25.7864C63.7053 26.4159 63.5383 27.0018 63.3234 27.5462L64.2535 27.9133ZM64.8055 25.9693L65.7887 26.1523C65.9254 25.4172 66.0106 24.6668 66.0446 23.9017L65.0455 23.8573L64.0465 23.8129C64.0165 24.4878 63.9417 25.1455 63.8224 25.7864L64.8055 25.9693ZM65.0455 23.8573V24.8573H68.3095V23.8573V22.8573H65.0455V23.8573ZM68.3095 23.8573H67.3095V25.4893H68.3095H69.3095V23.8573H68.3095ZM68.3095 25.4893V24.4893H66.6055V25.4893V26.4893H68.3095V25.4893ZM66.6055 25.4893L65.618 25.3322C65.5127 25.9941 65.3708 26.612 65.1938 27.1873L66.1495 27.4813L67.1053 27.7754C67.3123 27.1027 67.4744 26.3926 67.5931 25.6465L66.6055 25.4893ZM66.1495 27.4813L65.196 27.1802C65.0198 27.7381 64.8088 28.2533 64.5646 28.7274L65.4535 29.1853L66.3425 29.6433C66.6423 29.0614 66.8953 28.4406 67.1031 27.7825L66.1495 27.4813ZM65.4535 29.1853L64.7242 29.8695L67.9882 33.3495L68.7175 32.6653L69.4469 31.9812L66.1829 28.5012L65.4535 29.1853ZM68.7175 32.6653V31.6653H66.2215V32.6653V33.6653H68.7175V32.6653ZM66.2215 32.6653L66.9594 31.9904L65.1594 30.0224L64.4215 30.6973L63.6836 31.3723L65.4836 33.3403L66.2215 32.6653ZM60.1975 17.2333V16.2333C59.2804 16.2333 58.4542 16.5301 57.7994 17.1615L58.4935 17.8813L59.1877 18.6012C59.4289 18.3686 59.7387 18.2333 60.1975 18.2333V17.2333ZM58.4935 17.8813L57.7864 17.1742C57.1572 17.8035 56.8455 18.5982 56.8455 19.4893H57.8455H58.8455C58.8455 19.1005 58.9659 18.8232 59.2007 18.5884L58.4935 17.8813ZM57.8455 19.4893H56.8455V19.7773H57.8455H58.8455V19.4893H57.8455ZM57.8455 19.7773H56.8455C56.8455 20.4653 57.0535 21.1248 57.4128 21.7435L58.2775 21.2413L59.1423 20.7392C58.9256 20.3659 58.8455 20.0494 58.8455 19.7773H57.8455ZM58.2775 21.2413L57.4327 21.7764C57.7715 22.3113 58.1978 22.8656 58.7037 23.439L59.4535 22.7773L60.2034 22.1157C59.7493 21.6011 59.3916 21.1314 59.1224 20.7063L58.2775 21.2413ZM59.4535 22.7773L59.9298 23.6566C60.3335 23.438 60.7218 23.2102 61.0944 22.973L60.5575 22.1293L60.0207 21.2857C59.6893 21.4965 59.3416 21.7007 58.9773 21.8981L59.4535 22.7773ZM60.5575 22.1293L61.1038 22.967C61.5218 22.6944 61.8974 22.3957 62.2247 22.0685L61.5175 21.3613L60.8104 20.6542C60.5937 20.871 60.3293 21.0843 60.0113 21.2917L60.5575 22.1293ZM61.5175 21.3613L62.2042 22.0884C62.5457 21.7658 62.8374 21.4181 63.0668 21.0428L62.2135 20.5213L61.3603 19.9999C61.2376 20.2005 61.0654 20.4129 60.8309 20.6343L61.5175 21.3613ZM62.2135 20.5213L63.079 21.0224C63.339 20.5733 63.4775 20.0814 63.4775 19.5613H62.4775H61.4775C61.4775 19.7133 61.4401 19.8614 61.3481 20.0203L62.2135 20.5213ZM62.4775 19.5613H63.4775V19.2733H62.4775H61.4775V19.5613H62.4775ZM62.4775 19.2733H63.4775C63.4775 18.3497 63.1331 17.5315 62.3859 16.9647L61.7815 17.7613L61.1772 18.558C61.358 18.6952 61.4775 18.885 61.4775 19.2733H62.4775ZM61.7815 17.7613L62.3994 16.975C61.7629 16.475 61.0135 16.2333 60.1975 16.2333V17.2333V18.2333C60.5976 18.2333 60.9042 18.3437 61.1637 18.5477L61.7815 17.7613ZM59.7175 31.2733V32.2733C60.657 32.2733 61.5246 32.0981 62.2864 31.7069L61.8295 30.8173L61.3727 29.9278C60.9505 30.1446 60.4101 30.2733 59.7175 30.2733V31.2733ZM61.8295 30.8173L62.3051 31.6971C63.017 31.3122 63.6265 30.7995 64.127 30.1642L63.3415 29.5453L62.5561 28.9265C62.2246 29.3472 61.8261 29.6824 61.354 29.9376L61.8295 30.8173ZM63.3415 29.5453L64.0754 28.866L59.5874 24.018L58.8535 24.6973L58.1197 25.3767L62.6077 30.2247L63.3415 29.5453ZM58.8535 24.6973L58.3716 23.8211C58.0342 24.0067 57.7049 24.2009 57.3836 24.4039L57.9175 25.2493L58.4515 26.0948C58.7382 25.9138 59.0329 25.74 59.3355 25.5736L58.8535 24.6973ZM57.9175 25.2493L57.3628 24.4173C56.9917 24.6647 56.6629 24.9633 56.3776 25.3096L57.1495 25.9453L57.9215 26.5811C58.0842 26.3834 58.2674 26.218 58.4722 26.0814L57.9175 25.2493ZM57.1495 25.9453L56.397 25.2868C56.0922 25.6351 55.8529 26.0365 55.672 26.4787L56.5975 26.8573L57.5231 27.236C57.6302 26.9742 57.7589 26.7676 57.9021 26.6038L57.1495 25.9453ZM56.5975 26.8573L55.6631 26.5013C55.4812 26.9787 55.4055 27.5053 55.4055 28.0573H56.4055H57.4055C57.4055 27.6814 57.4579 27.408 57.532 27.2133L56.5975 26.8573ZM56.4055 28.0573H55.4055V28.4173H56.4055H57.4055V28.0573H56.4055ZM56.4055 28.4173H55.4055C55.4055 29.5474 55.799 30.5349 56.6394 31.2617L57.2935 30.5053L57.9477 29.749C57.6041 29.4518 57.4055 29.0473 57.4055 28.4173H56.4055ZM57.2935 30.5053L56.6494 31.2703C57.4817 31.9712 58.5386 32.2733 59.7175 32.2733V31.2733V30.2733C58.8805 30.2733 58.3214 30.0635 57.9377 29.7404L57.2935 30.5053Z" fill="#23D530" mask="url(#path-3-outside-1_419_933)"/>
</svg>
