<svg width="125" height="51" viewBox="0 0 125 51" fill="none" xmlns="http://www.w3.org/2000/svg">
<path d="M2.37845 16.248H9.79445C11.1865 16.248 12.2745 16.64 13.0585 17.424C13.8585 18.208 14.2585 19.256 14.2585 20.568C14.2585 21.192 14.1705 21.728 13.9945 22.176C13.8185 22.608 13.5945 22.968 13.3225 23.256C13.0505 23.528 12.7385 23.736 12.3865 23.88C12.0345 24.008 11.6905 24.088 11.3545 24.12V24.264C11.6905 24.28 12.0585 24.36 12.4585 24.504C12.8745 24.648 13.2585 24.88 13.6105 25.2C13.9625 25.504 14.2585 25.904 14.4985 26.4C14.7385 26.88 14.8585 27.472 14.8585 28.176C14.8585 28.848 14.7465 29.48 14.5225 30.072C14.3145 30.664 14.0185 31.176 13.6345 31.608C13.2505 32.04 12.7945 32.384 12.2665 32.64C11.7385 32.88 11.1625 33 10.5385 33H2.37845V16.248ZM5.09045 30.672H9.74645C10.4505 30.672 11.0025 30.488 11.4025 30.12C11.8025 29.752 12.0025 29.224 12.0025 28.536V27.72C12.0025 27.032 11.8025 26.504 11.4025 26.136C11.0025 25.768 10.4505 25.584 9.74645 25.584H5.09045V30.672ZM5.09045 23.328H9.29045C9.96245 23.328 10.4825 23.16 10.8505 22.824C11.2185 22.472 11.4025 21.976 11.4025 21.336V20.568C11.4025 19.928 11.2185 19.44 10.8505 19.104C10.4825 18.752 9.96245 18.576 9.29045 18.576H5.09045V23.328ZM18.1988 33V16.248H28.9268V18.648H20.9108V23.304H28.1828V25.704H20.9108V30.6H28.9268V33H18.1988ZM35.1373 33H32.4253V16.248H39.6493C41.1533 16.248 42.3373 16.704 43.2013 17.616C44.0653 18.512 44.4973 19.736 44.4973 21.288C44.4973 22.488 44.2173 23.488 43.6573 24.288C43.1133 25.072 42.3053 25.624 41.2333 25.944L44.8573 33H41.8333L38.4733 26.232H35.1373V33ZM39.4573 23.952C40.1453 23.952 40.6813 23.776 41.0653 23.424C41.4493 23.056 41.6413 22.536 41.6413 21.864V20.712C41.6413 20.04 41.4493 19.528 41.0653 19.176C40.6813 18.808 40.1453 18.624 39.4573 18.624H35.1373V23.952H39.4573ZM53.782 18.648V33H51.07V18.648H46.078V16.248H58.774V18.648H53.782Z" fill="#0D0F0F"/>
<path d="M73.576 23.7395L71.728 20.1875H71.656V33.0035H69.064V16.2515H72.088L77.56 25.5155L79.408 29.0675H79.48V16.2515H82.072V33.0035H79.048L73.576 23.7395ZM96.6608 33.0035L95.1488 28.4675H88.8848L87.4208 33.0035H84.6608L90.3728 16.2515H93.7808L99.4928 33.0035H96.6608ZM92.0768 18.7475H91.9568L89.5328 26.1395H94.4768L92.0768 18.7475ZM107.103 33.2915C105.695 33.2915 104.495 33.0355 103.503 32.5235C102.527 32.0115 101.687 31.3235 100.983 30.4595L102.855 28.7075C103.447 29.4275 104.095 29.9715 104.799 30.3395C105.519 30.7075 106.335 30.8915 107.247 30.8915C108.319 30.8915 109.127 30.6515 109.671 30.1715C110.215 29.6915 110.487 29.0435 110.487 28.2275C110.487 27.5715 110.295 27.0515 109.911 26.6675C109.527 26.2835 108.847 25.9955 107.871 25.8035L106.383 25.5395C104.751 25.2355 103.527 24.6995 102.711 23.9315C101.895 23.1635 101.487 22.1075 101.487 20.7635C101.487 20.0275 101.623 19.3635 101.895 18.7715C102.183 18.1635 102.575 17.6595 103.071 17.2595C103.583 16.8435 104.199 16.5235 104.919 16.2995C105.639 16.0755 106.447 15.9635 107.343 15.9635C108.607 15.9635 109.703 16.1875 110.631 16.6355C111.559 17.0675 112.351 17.6995 113.007 18.5315L111.111 20.2115C110.679 19.6515 110.151 19.2035 109.527 18.8675C108.903 18.5315 108.127 18.3635 107.199 18.3635C106.239 18.3635 105.495 18.5555 104.967 18.9395C104.439 19.3235 104.175 19.8835 104.175 20.6195C104.175 21.3235 104.391 21.8515 104.823 22.2035C105.255 22.5395 105.927 22.7955 106.839 22.9715L108.327 23.2835C110.007 23.6035 111.231 24.1475 111.999 24.9155C112.783 25.6835 113.175 26.7395 113.175 28.0835C113.175 28.8675 113.039 29.5795 112.767 30.2195C112.495 30.8595 112.095 31.4115 111.567 31.8755C111.055 32.3235 110.423 32.6755 109.671 32.9315C108.919 33.1715 108.063 33.2915 107.103 33.2915ZM115.711 33.0035V30.7955H117.991V18.4595H115.711V16.2515H123.007V18.4595H120.703V30.7955H123.007V33.0035H115.711Z" fill="#0D0F0F"/>
<mask id="path-3-outside-1_287_30" maskUnits="userSpaceOnUse" x="53" y="13.6653" width="19" height="21" fill="black">
<rect fill="white" x="53" y="13.6653" width="19" height="21"/>
<path d="M64.736 30.6973C64.56 30.9053 64.336 31.1453 64.064 31.4173C63.792 31.6733 63.456 31.9133 63.056 32.1373C62.672 32.3613 62.208 32.5533 61.664 32.7133C61.136 32.8733 60.536 32.9533 59.864 32.9533C59.032 32.9533 58.296 32.8333 57.656 32.5933C57.016 32.3533 56.48 32.0253 56.048 31.6093C55.616 31.1773 55.288 30.6813 55.064 30.1213C54.84 29.5613 54.728 28.9613 54.728 28.3213C54.728 27.6973 54.824 27.1453 55.016 26.6653C55.208 26.1853 55.464 25.7613 55.784 25.3933C56.12 25.0093 56.488 24.6733 56.888 24.3853C57.304 24.0973 57.728 23.8333 58.16 23.5933C57.584 22.9853 57.12 22.3693 56.768 21.7453C56.432 21.1053 56.264 20.4093 56.264 19.6573C56.264 19.0973 56.368 18.5693 56.576 18.0733C56.784 17.5773 57.072 17.1533 57.44 16.8013C57.824 16.4333 58.28 16.1453 58.808 15.9373C59.352 15.7293 59.952 15.6253 60.608 15.6253C61.2 15.6253 61.744 15.7133 62.24 15.8893C62.736 16.0653 63.16 16.3133 63.512 16.6333C63.864 16.9373 64.136 17.3133 64.328 17.7613C64.536 18.2093 64.64 18.6973 64.64 19.2253C64.64 19.7853 64.536 20.2893 64.328 20.7373C64.136 21.1693 63.864 21.5693 63.512 21.9373C63.16 22.3053 62.752 22.6493 62.288 22.9693C61.824 23.2733 61.328 23.5693 60.8 23.8573L64.568 27.9133C64.808 27.3053 64.992 26.6573 65.12 25.9693C65.248 25.2813 65.328 24.5773 65.36 23.8573H68.624V25.4893H66.92C66.808 26.1933 66.656 26.8573 66.464 27.4813C66.272 28.0893 66.04 28.6573 65.768 29.1853L69.032 32.6653H66.536L64.736 30.6973ZM60.512 17.2333C59.824 17.2333 59.256 17.4493 58.808 17.8813C58.376 18.3133 58.16 18.8493 58.16 19.4893V19.7773C58.16 20.2573 58.304 20.7453 58.592 21.2413C58.896 21.7213 59.288 22.2333 59.768 22.7773C60.152 22.5693 60.52 22.3533 60.872 22.1293C61.24 21.8893 61.56 21.6333 61.832 21.3613C62.12 21.0893 62.352 20.8093 62.528 20.5213C62.704 20.2173 62.792 19.8973 62.792 19.5613V19.2733C62.792 18.6173 62.56 18.1133 62.096 17.7613C61.648 17.4093 61.12 17.2333 60.512 17.2333ZM60.032 31.2733C60.848 31.2733 61.552 31.1213 62.144 30.8173C62.736 30.4973 63.24 30.0733 63.656 29.5453L59.168 24.6973C58.848 24.8733 58.536 25.0573 58.232 25.2493C57.944 25.4413 57.688 25.6733 57.464 25.9453C57.24 26.2013 57.056 26.5053 56.912 26.8573C56.784 27.1933 56.72 27.5933 56.72 28.0573V28.4173C56.72 29.2973 57.016 29.9933 57.608 30.5053C58.216 31.0173 59.024 31.2733 60.032 31.2733Z"/>
</mask>
<path d="M64.736 30.6973C64.56 30.9053 64.336 31.1453 64.064 31.4173C63.792 31.6733 63.456 31.9133 63.056 32.1373C62.672 32.3613 62.208 32.5533 61.664 32.7133C61.136 32.8733 60.536 32.9533 59.864 32.9533C59.032 32.9533 58.296 32.8333 57.656 32.5933C57.016 32.3533 56.48 32.0253 56.048 31.6093C55.616 31.1773 55.288 30.6813 55.064 30.1213C54.84 29.5613 54.728 28.9613 54.728 28.3213C54.728 27.6973 54.824 27.1453 55.016 26.6653C55.208 26.1853 55.464 25.7613 55.784 25.3933C56.12 25.0093 56.488 24.6733 56.888 24.3853C57.304 24.0973 57.728 23.8333 58.16 23.5933C57.584 22.9853 57.12 22.3693 56.768 21.7453C56.432 21.1053 56.264 20.4093 56.264 19.6573C56.264 19.0973 56.368 18.5693 56.576 18.0733C56.784 17.5773 57.072 17.1533 57.44 16.8013C57.824 16.4333 58.28 16.1453 58.808 15.9373C59.352 15.7293 59.952 15.6253 60.608 15.6253C61.2 15.6253 61.744 15.7133 62.24 15.8893C62.736 16.0653 63.16 16.3133 63.512 16.6333C63.864 16.9373 64.136 17.3133 64.328 17.7613C64.536 18.2093 64.64 18.6973 64.64 19.2253C64.64 19.7853 64.536 20.2893 64.328 20.7373C64.136 21.1693 63.864 21.5693 63.512 21.9373C63.16 22.3053 62.752 22.6493 62.288 22.9693C61.824 23.2733 61.328 23.5693 60.8 23.8573L64.568 27.9133C64.808 27.3053 64.992 26.6573 65.12 25.9693C65.248 25.2813 65.328 24.5773 65.36 23.8573H68.624V25.4893H66.92C66.808 26.1933 66.656 26.8573 66.464 27.4813C66.272 28.0893 66.04 28.6573 65.768 29.1853L69.032 32.6653H66.536L64.736 30.6973ZM60.512 17.2333C59.824 17.2333 59.256 17.4493 58.808 17.8813C58.376 18.3133 58.16 18.8493 58.16 19.4893V19.7773C58.16 20.2573 58.304 20.7453 58.592 21.2413C58.896 21.7213 59.288 22.2333 59.768 22.7773C60.152 22.5693 60.52 22.3533 60.872 22.1293C61.24 21.8893 61.56 21.6333 61.832 21.3613C62.12 21.0893 62.352 20.8093 62.528 20.5213C62.704 20.2173 62.792 19.8973 62.792 19.5613V19.2733C62.792 18.6173 62.56 18.1133 62.096 17.7613C61.648 17.4093 61.12 17.2333 60.512 17.2333ZM60.032 31.2733C60.848 31.2733 61.552 31.1213 62.144 30.8173C62.736 30.4973 63.24 30.0733 63.656 29.5453L59.168 24.6973C58.848 24.8733 58.536 25.0573 58.232 25.2493C57.944 25.4413 57.688 25.6733 57.464 25.9453C57.24 26.2013 57.056 26.5053 56.912 26.8573C56.784 27.1933 56.72 27.5933 56.72 28.0573V28.4173C56.72 29.2973 57.016 29.9933 57.608 30.5053C58.216 31.0173 59.024 31.2733 60.032 31.2733Z" fill="white"/>
<path d="M64.736 30.6973L65.4739 30.0224L64.7068 29.1837L63.9726 30.0514L64.736 30.6973ZM64.064 31.4173L64.7494 32.1455L64.7604 32.1352L64.7711 32.1245L64.064 31.4173ZM63.056 32.1373L62.5674 31.2648L62.5597 31.2691L62.5521 31.2736L63.056 32.1373ZM61.664 32.7133L61.3818 31.7539L61.374 31.7563L61.664 32.7133ZM57.656 32.5933L57.3049 33.5297L57.3049 33.5297L57.656 32.5933ZM56.048 31.6093L55.3409 32.3165L55.3476 32.3231L55.3544 32.3297L56.048 31.6093ZM55.064 30.1213L55.9925 29.75L55.9925 29.75L55.064 30.1213ZM55.016 26.6653L55.9445 27.0367L55.9445 27.0367L55.016 26.6653ZM55.784 25.3933L55.0314 24.7348L55.0294 24.7372L55.784 25.3933ZM56.888 24.3853L56.3188 23.5632L56.3112 23.5684L56.3037 23.5738L56.888 24.3853ZM58.16 23.5933L58.6456 24.4675L59.7725 23.8414L58.886 22.9056L58.16 23.5933ZM56.768 21.7453L55.8826 22.2102L55.8896 22.2235L55.897 22.2367L56.768 21.7453ZM57.44 16.8013L58.1312 17.524L58.1319 17.5233L57.44 16.8013ZM58.808 15.9373L58.4508 15.0032L58.4415 15.0069L58.808 15.9373ZM62.24 15.8893L62.5744 14.9469L62.5744 14.9469L62.24 15.8893ZM63.512 16.6333L62.8393 17.3733L62.8487 17.3818L62.8584 17.3902L63.512 16.6333ZM64.328 17.7613L63.4089 18.1553L63.4147 18.1689L63.421 18.1825L64.328 17.7613ZM64.328 20.7373L63.421 20.3162L63.4175 20.3237L63.4142 20.3312L64.328 20.7373ZM63.512 21.9373L64.2346 22.6286L64.2346 22.6286L63.512 21.9373ZM62.288 22.9693L62.836 23.8058L62.846 23.7993L62.8557 23.7926L62.288 22.9693ZM60.8 23.8573L60.3211 22.9794L59.1918 23.5955L60.0674 24.538L60.8 23.8573ZM64.568 27.9133L63.8354 28.594L64.9155 29.7566L65.4982 28.2805L64.568 27.9133ZM65.12 25.9693L64.1369 25.7864L64.1369 25.7864L65.12 25.9693ZM65.36 23.8573V22.8573H64.4035L64.361 23.8129L65.36 23.8573ZM68.624 23.8573H69.624V22.8573H68.624V23.8573ZM68.624 25.4893V26.4893H69.624V25.4893H68.624ZM66.92 25.4893V24.4893H66.0665L65.9324 25.3322L66.92 25.4893ZM66.464 27.4813L67.4176 27.7825L67.4198 27.7754L66.464 27.4813ZM65.768 29.1853L64.879 28.7274L64.5558 29.3547L65.0386 29.8695L65.768 29.1853ZM69.032 32.6653V33.6653H71.341L69.7614 31.9812L69.032 32.6653ZM66.536 32.6653L65.7981 33.3403L66.0954 33.6653H66.536V32.6653ZM58.808 17.8813L58.1139 17.1615L58.1073 17.1678L58.1009 17.1742L58.808 17.8813ZM58.592 21.2413L57.7272 21.7435L57.7369 21.7601L57.7472 21.7764L58.592 21.2413ZM59.768 22.7773L59.0182 23.439L59.5446 24.0356L60.2443 23.6566L59.768 22.7773ZM60.872 22.1293L61.4089 22.9731L61.4183 22.967L60.872 22.1293ZM61.832 21.3613L61.1454 20.6343L61.135 20.6441L61.1249 20.6542L61.832 21.3613ZM62.528 20.5213L63.3813 21.0428L63.3875 21.0327L63.3934 21.0224L62.528 20.5213ZM62.096 17.7613L61.4782 18.5477L61.4849 18.5529L61.4916 18.558L62.096 17.7613ZM62.144 30.8173L62.6008 31.7069L62.6102 31.7021L62.6195 31.6971L62.144 30.8173ZM63.656 29.5453L64.4415 30.1642L64.9703 29.493L64.3898 28.866L63.656 29.5453ZM59.168 24.6973L59.9018 24.018L59.3709 23.4445L58.6861 23.8211L59.168 24.6973ZM58.232 25.2493L57.698 24.4039L57.6876 24.4104L57.6773 24.4173L58.232 25.2493ZM57.464 25.9453L58.2166 26.6038L58.2264 26.5926L58.2359 26.5811L57.464 25.9453ZM56.912 26.8573L55.9865 26.4787L55.9818 26.49L55.9775 26.5013L56.912 26.8573ZM57.608 30.5053L56.9538 31.2618L56.9639 31.2703L57.608 30.5053ZM64.736 30.6973L63.9726 30.0514C63.8201 30.2316 63.6166 30.4506 63.3569 30.7102L64.064 31.4173L64.7711 32.1245C65.0554 31.8401 65.2999 31.5791 65.4994 31.3433L64.736 30.6973ZM64.064 31.4173L63.3786 30.6891C63.1777 30.8782 62.9116 31.0721 62.5674 31.2648L63.056 32.1373L63.5446 33.0099C64.0004 32.7546 64.4063 32.4685 64.7494 32.1455L64.064 31.4173ZM63.056 32.1373L62.5521 31.2736C62.2539 31.4475 61.8685 31.6109 61.3818 31.754L61.664 32.7133L61.9462 33.6727C62.5475 33.4958 63.0901 33.2752 63.5599 33.0011L63.056 32.1373ZM61.664 32.7133L61.374 31.7563C60.9579 31.8824 60.4583 31.9533 59.864 31.9533V32.9533V33.9533C60.6137 33.9533 61.3141 33.8643 61.954 33.6704L61.664 32.7133ZM59.864 32.9533V31.9533C59.1267 31.9533 58.5134 31.8469 58.0071 31.657L57.656 32.5933L57.3049 33.5297C58.0786 33.8198 58.9373 33.9533 59.864 33.9533V32.9533ZM57.656 32.5933L58.0071 31.657C57.4771 31.4582 57.0626 31.1981 56.7416 30.889L56.048 31.6093L55.3544 32.3297C55.8974 32.8526 56.5549 33.2484 57.3049 33.5297L57.656 32.5933ZM56.048 31.6093L56.7551 30.9022C56.4176 30.5647 56.1655 30.1826 55.9925 29.75L55.064 30.1213L54.1355 30.4927C54.4105 31.1801 54.8144 31.79 55.3409 32.3165L56.048 31.6093ZM55.064 30.1213L55.9925 29.75C55.8186 29.3152 55.728 28.842 55.728 28.3213H54.728H53.728C53.728 29.0807 53.8614 29.8075 54.1355 30.4927L55.064 30.1213ZM54.728 28.3213H55.728C55.728 27.7989 55.8084 27.3769 55.9445 27.0367L55.016 26.6653L54.0875 26.294C53.8396 26.9138 53.728 27.5958 53.728 28.3213H54.728ZM55.016 26.6653L55.9445 27.0367C56.0974 26.6544 56.2964 26.328 56.5386 26.0495L55.784 25.3933L55.0294 24.7372C54.6316 25.1947 54.3186 25.7162 54.0875 26.294L55.016 26.6653ZM55.784 25.3933L56.5366 26.0518C56.8243 25.7231 57.1362 25.4389 57.4723 25.1969L56.888 24.3853L56.3037 23.5738C55.8398 23.9078 55.4157 24.2956 55.0314 24.7348L55.784 25.3933ZM56.888 24.3853L57.4572 25.2075C57.8469 24.9378 58.243 24.6912 58.6456 24.4675L58.16 23.5933L57.6744 22.7192C57.213 22.9755 56.7611 23.2569 56.3188 23.5632L56.888 24.3853ZM58.16 23.5933L58.886 22.9056C58.3569 22.3472 57.9448 21.7961 57.639 21.254L56.768 21.7453L55.897 22.2367C56.2952 22.9426 56.8111 23.6235 57.434 24.2811L58.16 23.5933ZM56.768 21.7453L57.6534 21.2805C57.3958 20.7898 57.264 20.2542 57.264 19.6573H56.264H55.264C55.264 20.5645 55.4682 21.4209 55.8826 22.2102L56.768 21.7453ZM56.264 19.6573H57.264C57.264 19.2246 57.3437 18.8286 57.4982 18.4601L56.576 18.0733L55.6538 17.6866C55.3923 18.3101 55.264 18.9701 55.264 19.6573H56.264ZM56.576 18.0733L57.4982 18.4601C57.6561 18.0835 57.868 17.7758 58.1312 17.524L57.44 16.8013L56.7488 16.0787C56.276 16.5309 55.9119 17.0712 55.6538 17.6866L56.576 18.0733ZM57.44 16.8013L58.1319 17.5233C58.4159 17.2512 58.7593 17.0313 59.1745 16.8678L58.808 15.9373L58.4415 15.0069C57.8007 15.2594 57.2321 15.6155 56.7481 16.0794L57.44 16.8013ZM58.808 15.9373L59.1651 16.8714C59.5816 16.7121 60.0588 16.6253 60.608 16.6253V15.6253V14.6253C59.8452 14.6253 59.1224 14.7465 58.4509 15.0033L58.808 15.9373ZM60.608 15.6253V16.6253C61.1001 16.6253 61.5295 16.6983 61.9056 16.8318L62.24 15.8893L62.5744 14.9469C61.9585 14.7284 61.2999 14.6253 60.608 14.6253V15.6253ZM62.24 15.8893L61.9056 16.8318C62.2899 16.9681 62.5955 17.1516 62.8393 17.3733L63.512 16.6333L64.1847 15.8934C63.7245 15.4751 63.1821 15.1626 62.5744 14.9469L62.24 15.8893ZM63.512 16.6333L62.8584 17.3902C63.0899 17.5901 63.2737 17.8399 63.4089 18.1553L64.328 17.7613L65.2471 17.3674C64.9983 16.7867 64.6381 16.2845 64.1656 15.8765L63.512 16.6333ZM64.328 17.7613L63.421 18.1825C63.5636 18.4896 63.64 18.8326 63.64 19.2253H64.64H65.64C65.64 18.5621 65.5084 17.9291 65.235 17.3402L64.328 17.7613ZM64.64 19.2253H63.64C63.64 19.6594 63.56 20.0168 63.421 20.3162L64.328 20.7373L65.235 21.1585C65.512 20.5619 65.64 19.9113 65.64 19.2253H64.64ZM64.328 20.7373L63.4142 20.3312C63.2725 20.65 63.0679 20.955 62.7894 21.2461L63.512 21.9373L64.2346 22.6286C64.6602 22.1837 64.9995 21.6887 65.2418 21.1435L64.328 20.7373ZM63.512 21.9373L62.7894 21.2461C62.4891 21.5601 62.1341 21.8607 61.7203 22.1461L62.288 22.9693L62.8557 23.7926C63.3699 23.438 63.8309 23.0506 64.2346 22.6286L63.512 21.9373ZM62.288 22.9693L61.74 22.1329C61.3002 22.421 60.8275 22.7033 60.3211 22.9794L60.8 23.8573L61.2789 24.7352C61.8285 24.4354 62.3478 24.1257 62.836 23.8058L62.288 22.9693ZM60.8 23.8573L60.0674 24.538L63.8354 28.594L64.568 27.9133L65.3006 27.2327L61.5326 23.1767L60.8 23.8573ZM64.568 27.9133L65.4982 28.2805C65.7633 27.6089 65.9642 26.8988 66.1031 26.1523L65.12 25.9693L64.1369 25.7864C64.0198 26.4159 63.8527 27.0018 63.6378 27.5462L64.568 27.9133ZM65.12 25.9693L66.1031 26.1523C66.2399 25.4172 66.325 24.6668 66.359 23.9017L65.36 23.8573L64.361 23.8129C64.331 24.4878 64.2561 25.1455 64.1369 25.7864L65.12 25.9693ZM65.36 23.8573V24.8573H68.624V23.8573V22.8573H65.36V23.8573ZM68.624 23.8573H67.624V25.4893H68.624H69.624V23.8573H68.624ZM68.624 25.4893V24.4893H66.92V25.4893V26.4893H68.624V25.4893ZM66.92 25.4893L65.9324 25.3322C65.8271 25.9941 65.6852 26.612 65.5082 27.1873L66.464 27.4813L67.4198 27.7754C67.6268 27.1027 67.7889 26.3926 67.9076 25.6465L66.92 25.4893ZM66.464 27.4813L65.5104 27.1802C65.3342 27.7381 65.1233 28.2533 64.879 28.7274L65.768 29.1853L66.657 29.6433C66.9567 29.0614 67.2098 28.4406 67.4176 27.7825L66.464 27.4813ZM65.768 29.1853L65.0386 29.8695L68.3026 33.3495L69.032 32.6653L69.7614 31.9812L66.4974 28.5012L65.768 29.1853ZM69.032 32.6653V31.6653H66.536V32.6653V33.6653H69.032V32.6653ZM66.536 32.6653L67.2739 31.9904L65.4739 30.0224L64.736 30.6973L63.9981 31.3723L65.7981 33.3403L66.536 32.6653ZM60.512 17.2333V16.2333C59.5949 16.2333 58.7686 16.5301 58.1139 17.1615L58.808 17.8813L59.5021 18.6012C59.7434 18.3686 60.0531 18.2333 60.512 18.2333V17.2333ZM58.808 17.8813L58.1009 17.1742C57.4717 17.8035 57.16 18.5982 57.16 19.4893H58.16H59.16C59.16 19.1005 59.2803 18.8232 59.5151 18.5884L58.808 17.8813ZM58.16 19.4893H57.16V19.7773H58.16H59.16V19.4893H58.16ZM58.16 19.7773H57.16C57.16 20.4653 57.368 21.1248 57.7272 21.7435L58.592 21.2413L59.4568 20.7392C59.24 20.3659 59.16 20.0494 59.16 19.7773H58.16ZM58.592 21.2413L57.7472 21.7764C58.0859 22.3113 58.5123 22.8656 59.0182 23.439L59.768 22.7773L60.5178 22.1157C60.0637 21.6011 59.7061 21.1314 59.4368 20.7063L58.592 21.2413ZM59.768 22.7773L60.2443 23.6566C60.6479 23.438 61.0362 23.2102 61.4089 22.973L60.872 22.1293L60.3351 21.2857C60.0038 21.4965 59.6561 21.7007 59.2917 21.8981L59.768 22.7773ZM60.872 22.1293L61.4183 22.967C61.8362 22.6944 62.2118 22.3957 62.5391 22.0685L61.832 21.3613L61.1249 20.6542C60.9082 20.871 60.6438 21.0843 60.3257 21.2917L60.872 22.1293ZM61.832 21.3613L62.5186 22.0884C62.8602 21.7658 63.1519 21.4181 63.3813 21.0428L62.528 20.5213L61.6747 19.9999C61.5521 20.2005 61.3798 20.4129 61.1454 20.6343L61.832 21.3613ZM62.528 20.5213L63.3934 21.0224C63.6534 20.5733 63.792 20.0814 63.792 19.5613H62.792H61.792C61.792 19.7133 61.7546 19.8614 61.6626 20.0203L62.528 20.5213ZM62.792 19.5613H63.792V19.2733H62.792H61.792V19.5613H62.792ZM62.792 19.2733H63.792C63.792 18.3497 63.4476 17.5315 62.7004 16.9647L62.096 17.7613L61.4916 18.558C61.6724 18.6952 61.792 18.885 61.792 19.2733H62.792ZM62.096 17.7613L62.7138 16.975C62.0774 16.475 61.328 16.2333 60.512 16.2333V17.2333V18.2333C60.912 18.2333 61.2186 18.3437 61.4782 18.5477L62.096 17.7613ZM60.032 31.2733V32.2733C60.9715 32.2733 61.839 32.0981 62.6008 31.7069L62.144 30.8173L61.6872 29.9278C61.265 30.1446 60.7245 30.2733 60.032 30.2733V31.2733ZM62.144 30.8173L62.6195 31.6971C63.3314 31.3122 63.9409 30.7995 64.4415 30.1642L63.656 29.5453L62.8705 28.9265C62.5391 29.3472 62.1406 29.6824 61.6685 29.9376L62.144 30.8173ZM63.656 29.5453L64.3898 28.866L59.9018 24.018L59.168 24.6973L58.4342 25.3767L62.9222 30.2247L63.656 29.5453ZM59.168 24.6973L58.6861 23.8211C58.3487 24.0067 58.0193 24.2009 57.698 24.4039L58.232 25.2493L58.766 26.0948C59.0527 25.9138 59.3473 25.74 59.6499 25.5736L59.168 24.6973ZM58.232 25.2493L57.6773 24.4173C57.3062 24.6647 56.9773 24.9633 56.6921 25.3096L57.464 25.9453L58.2359 26.5811C58.3987 26.3834 58.5818 26.218 58.7867 26.0814L58.232 25.2493ZM57.464 25.9453L56.7114 25.2868C56.4067 25.6351 56.1674 26.0365 55.9865 26.4787L56.912 26.8573L57.8375 27.236C57.9446 26.9742 58.0733 26.7676 58.2166 26.6038L57.464 25.9453ZM56.912 26.8573L55.9775 26.5013C55.7957 26.9787 55.72 27.5053 55.72 28.0573H56.72H57.72C57.72 27.6814 57.7723 27.408 57.8465 27.2133L56.912 26.8573ZM56.72 28.0573H55.72V28.4173H56.72H57.72V28.0573H56.72ZM56.72 28.4173H55.72C55.72 29.5474 56.1134 30.5349 56.9538 31.2617L57.608 30.5053L58.2622 29.749C57.9186 29.4518 57.72 29.0473 57.72 28.4173H56.72ZM57.608 30.5053L56.9639 31.2703C57.7962 31.9712 58.8531 32.2733 60.032 32.2733V31.2733V30.2733C59.1949 30.2733 58.6358 30.0635 58.2521 29.7404L57.608 30.5053Z" fill="#23D530" mask="url(#path-3-outside-1_287_30)"/>
</svg>
