<svg width="11" height="13" viewBox="0 0 11 13" fill="none" xmlns="http://www.w3.org/2000/svg">
<path d="M8 9C8.55229 9 9 8.55228 9 8C9 7.44772 8.55229 7 8 7V8V9ZM0 8L0 9L8 9V8V7L0 7L0 8Z" fill="#23D530"/>
<path d="M0 8L0 9H2V8H1H0ZM2 1C2 0.447715 1.55228 0 1 0C0.447715 0 0 0.447715 0 1H1H2ZM1 8H2L2 1H1H0L0 8H1Z" fill="#23D530"/>
<line x1="8.70883" y1="8.12305" x2="5.99994" y2="5.41416" stroke="#23D530" stroke-width="2" stroke-linecap="round"/>
<line x1="6" y1="10.7088" x2="8.70889" y2="7.99994" stroke="#23D530" stroke-width="2" stroke-linecap="round"/>
</svg>
